<svg xmlns="http://www.w3.org/2000/svg" fill="none" viewBox="0 0 283 64"><path fill="black" d="m141.04 16 c0 6.09-3.6 12.2-9.7 16.39L114.04 50.2 c-4.21 2.83-11.53 2.83-15.75 0L81.04 32.39 c-6.09-4.2-9.7-10.3-9.7-16.39s3.61-12.2 9.7-16.39l17.25-11.81 c4.22-2.83 11.54-2.83 15.75 0L131.34-.61 c6.09 4.2 9.7 10.3 9.7 16.39z"/><path fill="#5E5E5E" d="m149.65 50.2 c6.09 4.2 9.77 10.31 9.77 16.39 0 6.09-3.68 12.99-9.77 16.39l-17.20 11.81 c-4.21 2.83-11.53 2.83-15.75 0l-17.20-11.81 c-6.09-4.2-9.77-10.3-9.77-16.39 0-6.08 3.68-12.19 9.77-16.39l17.20-11.81 c4.22-2.83 11.54-2.83 15.75 0l17.20 11.81z"/><path fill="black" d="M.02 32a32 32 0 1 1 64 0 32 32 0 0 1-64 0z"/></svg>
